<svg width="10" height="10" viewBox="0 0 10 10" fill="none" xmlns="http://www.w3.org/2000/svg">
<path fill-rule="evenodd" clip-rule="evenodd" d="M1.43554 9.69281L5.02812 5.63086C5.34151 5.27654 5.34151 4.72496 5.02812 4.37064L1.43554 0.308688C1.12215 -0.0456371 0.66985 -0.125998 0.356468 0.231978L0.214315 0.348869C-0.027991 0.663013 -0.0990674 1.05752 0.182007 1.33513C1.08662 2.36158 1.95892 3.34419 2.83122 4.37064C3.1446 4.72861 3.1446 5.27654 2.83122 5.63086C1.96215 6.61713 1.08662 7.64357 0.182007 8.62619C-0.0958367 8.9038 -0.0279911 9.29465 0.214315 9.61245L0.356467 9.76952C0.66985 10.1238 1.12215 10.0471 1.43554 9.69281Z" fill="#81D8D0"/>
<path fill-rule="evenodd" clip-rule="evenodd" d="M6.17238 9.69281L9.76497 5.63086C10.0784 5.27654 10.0784 4.72496 9.76497 4.37064L6.17238 0.308688C5.859 -0.0456371 5.4067 -0.125998 5.09331 0.231978L4.95116 0.348869C4.70886 0.663013 4.63778 1.05752 4.91885 1.33513C5.82346 2.36158 6.69576 3.34419 7.56806 4.37064C7.88145 4.72861 7.88145 5.27654 7.56806 5.63086C6.69899 6.61713 5.82346 7.64357 4.91885 8.62619C4.64101 8.9038 4.70886 9.29465 4.95116 9.61245L5.09331 9.76952C5.4067 10.1238 5.859 10.0471 6.17238 9.69281Z" fill="#81D8D0"/>
</svg>
