<svg width="24" height="24" viewBox="0 0 24 24" fill="none" xmlns="http://www.w3.org/2000/svg">
<g clip-path="url(#clip0)">
<path d="M23.4816 21.2688L21.2688 5.42881C21.2688 5.41921 21.264 5.41921 21.264 5.41921C21.2592 5.37601 21.2496 5.34721 21.2256 5.30401C21.2208 5.30401 21.216 5.29441 21.216 5.29441C21.2016 5.27521 21.1824 5.24161 21.1632 5.22241L17.9664 2.05441C17.9568 2.04481 17.9472 2.04481 17.9376 2.03521C17.9088 2.01601 17.8848 1.99201 17.856 1.98241C17.8128 1.96321 17.7744 1.95361 17.7216 1.95361H6.2784C6.2304 1.95361 6.1872 1.96321 6.144 1.98241C6.1152 1.99201 6.0912 2.01121 6.0672 2.03521C6.0576 2.04481 6.0384 2.04481 6.0336 2.05441H6.0288L2.832 5.22241C2.8176 5.24161 2.7936 5.27521 2.784 5.29441C2.7792 5.29441 2.7744 5.30401 2.7744 5.30401C2.7552 5.34721 2.7456 5.37601 2.7312 5.41921C2.7312 5.41921 2.7312 5.41921 2.7312 5.42881L0.513604 21.2688C0.432004 21.8688 0.614404 22.4784 1.0128 22.9344C1.4112 23.4 1.992 23.6592 2.5968 23.6592H21.4032C22.0128 23.6592 22.5936 23.4 22.992 22.9344C23.3856 22.4784 23.568 21.8688 23.4816 21.2688ZM6.6288 5.11681V2.65441H17.3712V5.11681H6.6288ZM18.072 3.14881L20.0688 5.11201H18.072V3.14881ZM5.9328 3.14881V5.11201H3.936L5.9328 3.14881ZM22.4544 22.4784C22.1904 22.776 21.8064 22.9536 21.3984 22.9536H2.5968C2.1936 22.9536 1.8096 22.776 1.5408 22.4784C1.2768 22.1664 1.152 21.7632 1.2096 21.36L3.3888 5.81761H20.616L22.7904 21.36C22.8432 21.7632 22.7232 22.1664 22.4544 22.4784Z" fill="#797979" stroke="#797979" stroke-miterlimit="10"/>
<path d="M17.7072 7.45451C16.8288 7.45451 16.1088 8.16971 16.1088 9.04811C16.1088 9.81611 16.6416 10.4449 17.352 10.6129C17.2848 13.4977 14.9136 15.8353 12 15.8353C9.08637 15.8353 6.71997 13.4977 6.64797 10.6081C7.36317 10.4401 7.88637 9.81131 7.88637 9.04331C7.88637 8.16491 7.17117 7.44971 6.29277 7.44971C5.40957 7.44971 4.68958 8.16491 4.68958 9.04331C4.68958 9.81131 5.23198 10.4497 5.94718 10.6081C6.01918 13.8865 8.70717 16.5361 12 16.5361C15.2976 16.5361 17.9808 13.8865 18.048 10.6081C18.768 10.4545 19.3056 9.81131 19.3056 9.04331C19.3056 8.16971 18.5904 7.45451 17.7072 7.45451ZM5.39517 9.04811C5.39517 8.56331 5.79837 8.16011 6.29277 8.16011C6.78237 8.16011 7.19037 8.56331 7.19037 9.04811C7.19037 9.42251 6.96477 9.73931 6.64317 9.88811V9.04811C6.64317 8.86091 6.48957 8.70731 6.29757 8.70731C6.10077 8.70731 5.94718 8.86091 5.94718 9.04811V9.88811C5.62078 9.73931 5.39517 9.42251 5.39517 9.04811ZM18.0576 9.88331V9.04331C18.0576 8.85611 17.8992 8.70251 17.7072 8.70251C17.5152 8.70251 17.3568 8.85611 17.3568 9.04331V9.88331C17.0352 9.73931 16.8096 9.41771 16.8096 9.04331C16.8096 8.55851 17.2128 8.15531 17.712 8.15531C18.2112 8.15531 18.6144 8.55851 18.6144 9.04331C18.6096 9.42251 18.3792 9.73931 18.0576 9.88331Z" fill="#797979" stroke="#797979" stroke-miterlimit="10"/>
</g>
<defs>
<clipPath id="clip0">
<rect width="24" height="24" fill="white"/>
</clipPath>
</defs>
</svg>
