<svg width="14" height="15" viewBox="0 0 14 15" fill="none" xmlns="http://www.w3.org/2000/svg">
<path d="M4.4661 4.6729C3.63145 5.38211 3.32559 6.67553 4.04628 7.71317C4.7207 8.68414 5.57028 9.53355 6.54103 10.2077C7.57874 10.9282 8.8721 10.6223 9.5812 9.78757L9.58913 9.79123C10.4949 10.2108 11.457 10.4984 12.4444 10.645V12.6981H12.4436H12.4414C6.23894 12.7069 1.54893 7.96229 1.55556 1.81201V1.80922H3.6084L3.60853 1.81013C3.75511 2.7975 4.04258 3.75874 4.46221 4.6645L4.4661 4.6729ZM12.4436 14.2536H13.2222C13.6518 14.2536 14 13.9054 14 13.4759V9.97409C14 9.58862 13.7177 9.26133 13.3364 9.20479L12.672 9.10616C11.8318 8.98149 11.0137 8.7368 10.2429 8.37972L9.65735 8.10851C9.31808 7.95132 8.91488 8.05788 8.69757 8.36222L8.4325 8.7333C8.20018 9.05856 7.75661 9.15796 7.42824 8.92992C6.60986 8.3616 5.89252 7.64441 5.3239 6.8258C5.09585 6.49742 5.1952 6.05386 5.52051 5.82153L5.8915 5.5566C6.19585 5.33924 6.3024 4.93604 6.14522 4.59669L5.87362 4.01058C5.51654 3.23986 5.27195 2.4219 5.14722 1.58171L5.04858 0.91723C4.99198 0.535964 4.66468 0.253662 4.27924 0.253662H0.777785C0.348234 0.253662 7.95439e-06 0.601888 7.95439e-06 1.03144V1.81033C-0.00755204 8.81535 5.37462 14.2637 12.4436 14.2536Z" fill="#81D8D0"/>
</svg>
