<svg width="20" height="20" viewBox="0 0 20 20" fill="none" xmlns="http://www.w3.org/2000/svg">
<path d="M5.83333 6.66667C5.83333 4.36548 7.69881 2.5 9.99999 2.5C12.3012 2.5 14.1667 4.36548 14.1667 6.66667C14.1667 8.96783 12.3012 10.8333 9.99999 10.8333C7.69881 10.8333 5.83333 8.96783 5.83333 6.66667ZM9.99999 9.16667C11.3807 9.16667 12.5 8.04738 12.5 6.66667C12.5 5.28596 11.3807 4.16667 9.99999 4.16667C8.61924 4.16667 7.49999 5.28596 7.49999 6.66667C7.49999 8.04738 8.61924 9.16667 9.99999 9.16667Z" fill="#797979"/>
<path d="M5.28595 13.6191C4.0357 14.8693 3.33333 16.5651 3.33333 18.3332H4.99999C4.99999 17.0071 5.52678 15.7353 6.46446 14.7977C7.40214 13.8599 8.67391 13.3332 9.99999 13.3332C11.3261 13.3332 12.5978 13.8599 13.5355 14.7977C14.4732 15.7353 15 17.0071 15 18.3332H16.6667C16.6667 16.5651 15.9642 14.8693 14.7141 13.6191C13.4638 12.3689 11.7681 11.6665 9.99999 11.6665C8.23189 11.6665 6.53619 12.3689 5.28595 13.6191Z" fill="#797979"/>
</svg>
