<svg width="17" height="18" viewBox="0 0 17 18" fill="none" xmlns="http://www.w3.org/2000/svg">
<path fill-rule="evenodd" clip-rule="evenodd" d="M2.44041 16.8559L8.54781 9.79215C9.08056 9.17597 9.08056 8.21677 8.54781 7.6006L2.44041 0.536812C1.90766 -0.0793648 1.13874 -0.219114 0.605995 0.403414L0.364335 0.606688C-0.0475847 1.15299 -0.168415 1.83904 0.309412 2.32182C1.84725 4.10682 3.33016 5.81559 4.81307 7.6006C5.34582 8.22312 5.34582 9.17597 4.81307 9.79215C3.33565 11.5073 1.84725 13.2923 0.309412 15.0011C-0.162922 15.4838 -0.0475849 16.1635 0.364335 16.7162L0.605995 16.9893C1.13874 17.6055 1.90766 17.4721 2.44041 16.8559Z" fill="#797979"/>
<path fill-rule="evenodd" clip-rule="evenodd" d="M10.493 16.8559L16.6004 9.79215C17.1332 9.17597 17.1332 8.21677 16.6004 7.6006L10.493 0.536812C9.96027 -0.0793648 9.19136 -0.219114 8.65861 0.403414L8.41695 0.606688C8.00503 1.15299 7.8842 1.83904 8.36202 2.32182C9.89986 4.10682 11.3828 5.81559 12.8657 7.6006C13.3984 8.22312 13.3984 9.17597 12.8657 9.79215C11.3883 11.5073 9.89986 13.2923 8.36202 15.0011C7.88969 15.4838 8.00503 16.1635 8.41695 16.7162L8.65861 16.9893C9.19136 17.6055 9.96027 17.4721 10.493 16.8559Z" fill="#797979"/>
</svg>
